#!OML:ASF F:\twosubjects\two\Thursday\Session 1\justin.ASF
:FULLY-SPECIFIED
:DEGREES
425
root -5.79892 18.0196 6.50018 -529.076 -38.3489 535.892
lowerback 0.824173 -1.95668 -8.12499
upperback 0.600906 -2.67229 2.37657
thorax 0.649617 -1.39583 7.04765
lowerneck -17.6302 -8.74026 -14.1523
upperneck 23.4591 -12.6006 12.9045
head 12.4671 -5.68078 5.07013
rclavicle 6.37105e-014 1.78906e-014
rhumerus -28.8251 -15.1865 -80.783
rradius 25.3914
rwrist -0.540056
rhand -14.0662 11.6593
rfingers 7.12502
rthumb 12.0653 -17.9729
lclavicle 6.37105e-014 1.78906e-014
lhumerus -19.3016 -8.83676 85.9348
lradius 35.8976
lwrist -2.85902
lhand -6.90638 37.3689
lfingers 7.12502
lthumb 18.9609 66.4647
rfemur -33.4687 -8.97718 12.1857
rtibia 31.7815
rfoot -5.95792 -11.3633
rtoes 4.55361
lfemur -1.48503 8.99714 -22.0825
ltibia 12.9614
lfoot -13.9486 6.23947
ltoes -14.4525
426
root -5.76692 18.03 6.47699 -530.064 -37.9104 538.138
lowerback 1.43651 -1.829 -6.77366
upperback 0.352659 -2.54767 2.98691
thorax -0.00824942 -1.29887 6.95159
lowerneck -17.7462 -8.71474 -14.4627
upperneck 23.6263 -12.5886 13.2071
head 12.6037 -5.67052 5.24554
rclavicle -1.69961e-014 -1.23246e-014
rhumerus -28.4473 -15.3267 -80.5627
rradius 25.1446
rwrist -0.19302
rhand -13.6232 11.8095
rfingers 7.12502
rthumb 12.4924 -17.7971
lclavicle -1.69961e-014 -1.23246e-014
lhumerus -19.0392 -9.11377 86.0052
lradius 35.7139
lwrist -2.98186
lhand -7.22912 36.3031
lfingers 7.12502
lthumb 18.6505 65.429
rfemur -34.057 -7.02474 14.1394
rtibia 29.9246
rfoot -5.46065 -13.4518
rtoes 3.56675
lfemur -1.37271 8.80512 -20.1225
ltibia 11.7918
lfoot -13.027 6.85553
ltoes -13.6209
427
root -5.85694 18.0314 6.38481 -529.192 -37.8632 536.904
lowerback 0.646855 -2.0816 -7.35114
upperback 0.473066 -2.82878 2.66845
thorax 0.620928 -1.46741 6.90756
lowerneck -17.7327 -8.70455 -14.5152
upperneck 23.8006 -12.6334 13.2787
head 12.6876 -5.69498 5.27881
rclavicle 2.93207e-014 -2.46493e-014
rhumerus -28.3578 -15.3505 -80.4451
rradius 25.185
rwrist -0.0157976
rhand -13.4294 11.7324
rfingers 7.12502
rthumb 12.6793 -17.8627
lclavicle 2.93207e-014 -2.46493e-014
lhumerus -18.8065 -9.56401 85.9814
lradius 35.497
lwrist -3.17779
lhand -7.45561 35.3252
lfingers 7.12502
lthumb 18.4326 64.4719
rfemur -33.9044 -8.46682 13.3547
rtibia 28.3737
rfoot -6.13372 -13.0921
rtoes 1.02587
lfemur -0.252803 8.84584 -21.2282
ltibia 10.4326
lfoot -12.6603 6.58344
ltoes -13.8627
428
root -5.89924 18.0286 6.31722 -529.085 -37.5462 536.564
lowerback 0.712158 -2.13668 -7.61995
upperback 0.530652 -2.9067 2.62754
thorax 0.669453 -1.51165 7.01815
lowerneck -17.757 -8.64598 -14.2786
upperneck 23.9009 -12.5361 12.9643
head 12.6705 -5.6646 5.13547
rclavicle -3.67752e-014 0
rhumerus -28.2452 -14.8037 -80.4459
rradius 25.374
rwrist -0.215185
rhand -13.6431 11.4135
rfingers 7.12502
rthumb 12.4732 -18.1943
lclavicle -3.67752e-014 0
lhumerus -18.5278 -9.80771 85.9882
lradius 35.2763
lwrist -3.60715
lhand -7.09614 35.75
lfingers 7.12502
lthumb 18.7784 64.8636
rfemur -33.718 -8.62735 13.1631
rtibia 26.8161
rfoot -6.8505 -13.4398
rtoes 0.211613
lfemur 0.81904 8.69602 -21.5336
ltibia 9.24267
lfoot -12.0328 6.90685
ltoes -14.6149
429
root -5.92334 18.0217 6.25209 -528.823 -37.1181 536.256
lowerback 0.738725 -2.15883 -7.96642
upperback 0.589289 -2.93794 2.57542
thorax 0.736554 -1.53387 7.1604
lowerneck -17.9037 -8.5642 -13.9677
upperneck 23.8433 -12.3898 12.7196
head 12.6091 -5.58825 5.01042
rclavicle 8.71671e-014 -5.4467e-014
rhumerus -27.9036 -14.1516 -80.5683
rradius 25.4669
rwrist -0.600284
rhand -13.7269 11.6039
rfingers 7.12502
rthumb 12.3924 -18.0088
lclavicle 8.71671e-014 -5.4467e-014
lhumerus -18.2127 -10.1608 85.9393
lradius 35.192
lwrist -3.7232
lhand -6.78495 35.9915
lfingers 7.12502
lthumb 19.0776 65.0758
rfemur -33.926 -8.41176 13.0176
rtibia 25.6693
rfoot -7.08167 -14.0217
rtoes -0.261786
lfemur 2.26736 8.65257 -21.7932
ltibia 6.79166
lfoot -10.9515 7.16087
ltoes -15.0413
430
root -5.95055 18.0103 6.18534 -528.304 -36.7508 535.807
lowerback 0.538029 -2.25161 -8.34024
upperback 0.582449 -3.04473 2.47671
thorax 0.876801 -1.59449 7.25866
lowerneck -17.8792 -8.51295 -13.9074
upperneck 23.7894 -12.3628 12.8085
head 12.581 -5.5645 5.03976
rclavicle -2.26615e-014 1.98785e-015
rhumerus -27.6678 -13.8198 -80.65
rradius 25.5578
rwrist -0.694275
rhand -13.838 12.2319
rfingers 7.12502
rthumb 12.2853 -17.3873
lclavicle -2.26615e-014 1.98785e-015
lhumerus -17.9836 -10.6528 85.8565
lradius 35.0914
lwrist -3.5658
lhand -6.85568 35.5179
lfingers 7.12502
lthumb 19.0096 64.609
rfemur -34.2722 -8.48574 12.8662
rtibia 24.576
rfoot -7.45544 -14.4309
rtoes -2.41583
lfemur 3.30187 8.51722 -22.1902
ltibia 4.75674
lfoot -10.0384 7.44691
ltoes -16.0636
